<?xml version="1.0" encoding="UTF-8"?><svg id="Ebene_1" xmlns="http://www.w3.org/2000/svg" viewBox="0 0 1417.32 141.73"><rect x="1389.53" y="85.04" width="27.79" height="28.35"/><rect x="1389.53" y="56.69" width="27.79" height="28.35"/><rect x="1389.53" y="28.35" width="27.79" height="28.34"/><rect x="1389.53" width="27.79" height="28.35"/><rect x="1361.74" y="113.39" width="27.79" height="28.34"/><rect x="1361.74" y="85.04" width="27.79" height="28.35"/><rect x="1361.74" y="56.69" width="27.79" height="28.35"/><rect x="1361.74" y="28.35" width="27.79" height="28.34"/><rect x="1361.74" width="27.79" height="28.35"/><rect x="1333.95" y="85.04" width="27.79" height="28.35"/><rect x="1333.95" y="56.69" width="27.79" height="28.35"/><rect x="1333.95" y="28.35" width="27.79" height="28.34"/><rect x="1333.95" width="27.79" height="28.35"/><rect x="1306.16" y="56.69" width="27.79" height="28.35"/><rect x="1306.16" y="28.35" width="27.79" height="28.34"/><rect x="1306.16" width="27.79" height="28.35"/><rect x="1278.37" y="85.04" width="27.79" height="28.35"/><rect x="1278.37" y="28.35" width="27.79" height="28.34"/><rect x="1278.37" width="27.79" height="28.35"/><rect x="1250.58" y="113.39" width="27.79" height="28.34"/><rect x="1250.58" y="56.69" width="27.79" height="28.35"/><rect x="1250.58" y="28.35" width="27.79" height="28.34"/><rect x="1250.58" width="27.79" height="28.35"/><rect x="1222.79" y="85.04" width="27.79" height="28.35"/><rect x="1222.79" y="56.69" width="27.79" height="28.35"/><rect x="1222.79" y="28.35" width="27.79" height="28.34"/><rect x="1222.79" width="27.79" height="28.35"/><rect x="1195" y="85.04" width="27.79" height="28.35"/><rect x="1195" y="56.69" width="27.79" height="28.35"/><rect x="1195" y="28.35" width="27.79" height="28.34"/><rect x="1195" width="27.79" height="28.35"/><rect x="1167.21" y="113.39" width="27.79" height="28.34"/><rect x="1167.21" y="56.69" width="27.79" height="28.35"/><rect x="1167.21" y="28.35" width="27.79" height="28.34"/><rect x="1167.21" width="27.79" height="28.35"/><rect x="1139.42" y="85.04" width="27.79" height="28.35"/><rect x="1139.42" y="56.69" width="27.79" height="28.35"/><rect x="1139.42" y="28.35" width="27.79" height="28.34"/><rect x="1139.42" width="27.79" height="28.35"/><rect x="1111.63" y="113.39" width="27.79" height="28.34"/><rect x="1111.63" y="85.04" width="27.79" height="28.35"/><rect x="1111.63" y="28.35" width="27.79" height="28.34"/><rect x="1111.63" width="27.79" height="28.35"/><rect x="1083.84" y="113.39" width="27.79" height="28.34"/><rect x="1083.84" y="85.04" width="27.79" height="28.35"/><rect x="1083.84" y="56.69" width="27.79" height="28.35"/><rect x="1083.84" y="28.35" width="27.79" height="28.34"/><rect x="1083.84" width="27.79" height="28.35"/><rect x="1056.04" y="85.04" width="27.8" height="28.35"/><rect x="1056.04" y="56.69" width="27.8" height="28.35"/><rect x="1056.04" y="28.35" width="27.8" height="28.34"/><rect x="1056.04" width="27.8" height="28.35"/><rect x="1028.25" y="85.04" width="27.79" height="28.35"/><rect x="1028.25" y="56.69" width="27.79" height="28.35"/><rect x="1028.25" y="28.35" width="27.79" height="28.34"/><rect x="1028.25" width="27.79" height="28.35"/><rect x="1000.46" y="85.04" width="27.79" height="28.35"/><rect x="1000.46" y="28.35" width="27.79" height="28.34"/><rect x="1000.46" width="27.79" height="28.35"/><rect x="972.67" y="56.69" width="27.79" height="28.35"/><rect x="972.67" y="28.35" width="27.79" height="28.34"/><rect x="972.67" width="27.79" height="28.35"/><rect x="944.88" y="113.39" width="27.79" height="28.34"/><rect x="944.88" y="85.04" width="27.79" height="28.35"/><rect x="944.88" y="56.69" width="27.79" height="28.35"/><rect x="944.88" y="28.35" width="27.79" height="28.34"/><rect x="944.88" width="27.79" height="28.35"/><rect x="917.09" y="113.39" width="27.79" height="28.34"/><rect x="917.09" y="85.04" width="27.79" height="28.35"/><rect x="917.09" y="56.69" width="27.79" height="28.35"/><rect x="917.09" y="28.35" width="27.79" height="28.34"/><rect x="917.09" width="27.79" height="28.35"/><rect x="889.3" y="85.04" width="27.79" height="28.35"/><rect x="889.3" y="56.69" width="27.79" height="28.35"/><rect x="889.3" y="28.35" width="27.79" height="28.34"/><rect x="889.3" width="27.79" height="28.35"/><rect x="861.51" y="113.39" width="27.79" height="28.34"/><rect x="861.51" y="85.04" width="27.79" height="28.35"/><rect x="861.51" y="56.69" width="27.79" height="28.35"/><rect x="861.51" y="28.35" width="27.79" height="28.34"/><rect x="861.51" width="27.79" height="28.35"/><rect x="833.72" y="85.04" width="27.79" height="28.35"/><rect x="833.72" y="56.69" width="27.79" height="28.35"/><rect x="833.72" y="28.35" width="27.79" height="28.34"/><rect x="833.72" width="27.79" height="28.35"/><rect x="805.93" y="85.04" width="27.79" height="28.35"/><rect x="805.93" y="56.69" width="27.79" height="28.35"/><rect x="805.93" y="28.35" width="27.79" height="28.34"/><rect x="805.93" width="27.79" height="28.35"/><rect x="778.14" y="113.39" width="27.79" height="28.34"/><rect x="778.14" y="85.04" width="27.79" height="28.35"/><rect x="778.14" y="56.69" width="27.79" height="28.35"/><rect x="778.14" y="28.35" width="27.79" height="28.34"/><rect x="778.14" width="27.79" height="28.35"/><rect x="750.35" y="85.04" width="27.79" height="28.35"/><rect x="750.35" y="56.69" width="27.79" height="28.35"/><rect x="750.35" y="28.35" width="27.79" height="28.34"/><rect x="750.35" width="27.79" height="28.35"/><rect x="722.56" y="113.39" width="27.79" height="28.34"/><rect x="722.56" y="85.04" width="27.79" height="28.35"/><rect x="722.56" y="56.69" width="27.79" height="28.35"/><rect x="722.56" y="28.35" width="27.79" height="28.34"/><rect x="722.56" width="27.79" height="28.35"/><rect x="694.77" y="85.04" width="27.79" height="28.35"/><rect x="694.77" y="56.69" width="27.79" height="28.35"/><rect x="694.77" y="28.35" width="27.79" height="28.34"/><rect x="694.77" width="27.79" height="28.35"/><rect x="666.98" y="56.69" width="27.79" height="28.35"/><rect x="666.98" y="28.35" width="27.79" height="28.34"/><rect x="666.98" width="27.79" height="28.35"/><rect x="639.18" y="113.39" width="27.8" height="28.34"/><rect x="639.18" y="56.69" width="27.8" height="28.35"/><rect x="639.18" y="28.35" width="27.8" height="28.34"/><rect x="639.18" width="27.8" height="28.35"/><rect x="611.39" y="85.04" width="27.79" height="28.35"/><rect x="611.39" y="56.69" width="27.79" height="28.35"/><rect x="611.39" y="28.35" width="27.79" height="28.34"/><rect x="611.39" width="27.79" height="28.35"/><rect x="583.6" y="85.04" width="27.79" height="28.35"/><rect x="583.6" y="56.69" width="27.79" height="28.35"/><rect x="583.6" y="28.35" width="27.79" height="28.34"/><rect x="583.6" width="27.79" height="28.35"/><rect x="555.81" y="28.35" width="27.79" height="28.34"/><rect x="555.81" width="27.79" height="28.35"/><rect x="528.02" y="85.04" width="27.79" height="28.35"/><rect x="528.02" y="56.69" width="27.79" height="28.35"/><rect x="528.02" y="28.35" width="27.79" height="28.34"/><rect x="528.02" width="27.79" height="28.35"/><rect x="500.23" y="113.39" width="27.79" height="28.34"/><rect x="500.23" y="56.69" width="27.79" height="28.35"/><rect x="500.23" y="28.35" width="27.79" height="28.34"/><rect x="500.23" width="27.79" height="28.35"/><rect x="472.44" y="85.04" width="27.79" height="28.35"/><rect x="472.44" y="56.69" width="27.79" height="28.35"/><rect x="472.44" y="28.35" width="27.79" height="28.34"/><rect x="472.44" width="27.79" height="28.35"/><rect x="444.65" y="113.39" width="27.79" height="28.34"/><rect x="444.65" y="85.04" width="27.79" height="28.35"/><rect x="444.65" y="56.69" width="27.79" height="28.35"/><rect x="444.65" y="28.35" width="27.79" height="28.34"/><rect x="444.65" width="27.79" height="28.35"/><rect x="416.86" y="113.39" width="27.79" height="28.34"/><rect x="416.86" y="85.04" width="27.79" height="28.35"/><rect x="416.86" y="28.35" width="27.79" height="28.34"/><rect x="416.86" width="27.79" height="28.35"/><rect x="389.07" y="85.04" width="27.79" height="28.35"/><rect x="389.07" y="56.69" width="27.79" height="28.35"/><rect x="389.07" y="28.35" width="27.79" height="28.34"/><rect x="389.07" width="27.79" height="28.35"/><rect x="361.28" y="113.39" width="27.79" height="28.34"/><rect x="361.28" y="56.69" width="27.79" height="28.35"/><rect x="361.28" y="28.35" width="27.79" height="28.34"/><rect x="361.28" width="27.79" height="28.35"/><rect x="333.49" y="56.69" width="27.79" height="28.35"/><rect x="333.49" y="28.35" width="27.79" height="28.34"/><rect x="333.49" width="27.79" height="28.35"/><rect x="305.7" y="85.04" width="27.79" height="28.35"/><rect x="305.7" y="28.35" width="27.79" height="28.34"/><rect x="305.7" width="27.79" height="28.35"/><rect x="277.91" y="113.39" width="27.79" height="28.34"/><rect x="277.91" y="85.04" width="27.79" height="28.35"/><rect x="277.91" y="28.35" width="27.79" height="28.34"/><rect x="277.91" width="27.79" height="28.35"/><rect x="250.12" y="85.04" width="27.79" height="28.35"/><rect x="250.12" y="56.69" width="27.79" height="28.35"/><rect x="250.12" y="28.35" width="27.79" height="28.34"/><rect x="250.12" width="27.79" height="28.35"/><rect x="222.33" y="85.04" width="27.79" height="28.35"/><rect x="222.33" y="56.69" width="27.79" height="28.35"/><rect x="222.33" y="28.35" width="27.79" height="28.34"/><rect x="222.33" width="27.79" height="28.35"/><rect x="194.53" y="56.69" width="27.8" height="28.35"/><rect x="194.53" y="28.35" width="27.8" height="28.34"/><rect x="194.53" width="27.8" height="28.35"/><rect x="166.74" y="56.69" width="27.79" height="28.35"/><rect x="166.74" y="28.35" width="27.79" height="28.34"/><rect x="166.74" width="27.79" height="28.35"/><rect x="138.95" y="85.04" width="27.79" height="28.35"/><rect x="138.95" y="28.35" width="27.79" height="28.34"/><rect x="138.95" width="27.79" height="28.35"/><rect x="111.16" y="113.39" width="27.79" height="28.34"/><rect x="111.16" y="85.04" width="27.79" height="28.35"/><rect x="111.16" y="56.69" width="27.79" height="28.35"/><rect x="111.16" y="28.35" width="27.79" height="28.34"/><rect x="111.16" width="27.79" height="28.35"/><rect x="83.37" y="85.04" width="27.79" height="28.35"/><rect x="83.37" y="56.69" width="27.79" height="28.35"/><rect x="83.37" y="28.35" width="27.79" height="28.34"/><rect x="83.37" width="27.79" height="28.35"/><rect x="55.58" y="85.04" width="27.79" height="28.35"/><rect x="55.58" y="56.69" width="27.79" height="28.35"/><rect x="55.58" y="28.35" width="27.79" height="28.34"/><rect x="55.58" width="27.79" height="28.35"/><rect x="27.79" y="113.39" width="27.79" height="28.34"/><rect x="27.79" y="56.69" width="27.79" height="28.35"/><rect x="27.79" y="28.35" width="27.79" height="28.34"/><rect x="27.79" width="27.79" height="28.35"/><rect y="85.04" width="27.79" height="28.35"/><rect y="56.69" width="27.79" height="28.35"/><rect y="28.35" width="27.79" height="28.34"/><rect width="27.79" height="28.35"/></svg>